<svg xmlns="http://www.w3.org/2000/svg" xml:space="preserve" width="800" height="800" viewBox="0 0 512 512"><path d="M476.694 512H35.306c-8.03 0-14.54-6.509-14.54-14.54V14.54C20.766 6.51 27.275 0 35.306 0h441.389c8.03 0 14.54 6.509 14.54 14.54v328.698c0 8.03-6.509 14.54-14.54 14.54s-14.54-6.509-14.54-14.54V29.08H49.845v453.84h412.309v-51.955c0-8.03 6.509-14.54 14.54-14.54s14.54 6.509 14.54 14.54v66.495c0 8.031-6.509 14.54-14.54 14.54" style="fill:#507c5c"/><path d="M411.265 412.064H374.75c-8.03 0-14.54-6.509-14.54-14.54s6.509-14.54 14.54-14.54h36.515c8.03 0 14.54 6.509 14.54 14.54s-6.509 14.54-14.54 14.54M314.158 412.064H100.735c-8.03 0-14.54-6.509-14.54-14.54s6.509-14.54 14.54-14.54H314.16c8.03 0 14.54 6.509 14.54 14.54s-6.511 14.54-14.542 14.54" style="fill:#507c5c"/><path d="M100.735 79.969v256.969h310.531V79.969zm34.146 255.999 77.135-133.602 77.135 133.602zm185.82-130.694c-20.165 0-36.512-16.347-36.512-36.514s16.347-36.514 36.512-36.514 36.512 16.347 36.512 36.514-16.345 36.514-36.512 36.514" style="fill:#cff09e"/><path d="M411.265 351.478h-310.53c-8.03 0-14.54-6.509-14.54-14.54V79.969c0-8.03 6.509-14.54 14.54-14.54h310.531c8.03 0 14.54 6.509 14.54 14.54v256.969c-.001 8.03-6.51 14.54-14.541 14.54m-113.158-29.08h98.619V94.509H115.274v227.889h10.653l73.497-127.302a14.537 14.537 0 0 1 25.182 0zm-138.043-.97h103.904l-51.952-89.982zm160.637-101.614c-28.15 0-51.052-22.902-51.052-51.054 0-28.151 22.902-51.052 51.052-51.052s51.052 22.902 51.052 51.052c.002 28.152-22.901 51.054-51.052 51.054m0-73.026c-12.116 0-21.973 9.857-21.973 21.973s9.857 21.974 21.973 21.974 21.973-9.858 21.973-21.974-9.857-21.973-21.973-21.973" style="fill:#507c5c"/></svg>