<svg xmlns="http://www.w3.org/2000/svg" xml:space="preserve" viewBox="0 0 512.004 512.004"><path d="M203.021 263.338h129.453v100.019H203.021zM497.289 432.524l-97.126-44.159V238.344l97.126-44.159z" style="fill:#f4b2b0"/><path d="M505.252 181.816a14.7 14.7 0 0 0-14.052-1.022l-94.227 42.842h-49.788v-27.955c0-8.125-6.587-14.711-14.711-14.711h-88.371l-20.073-55.147h63.032c6.164 18.359 23.522 31.628 43.93 31.628h41.936c25.551 0 46.338-20.788 46.338-46.338s-20.788-46.338-46.338-46.338h-41.936c-20.409 0-37.767 13.269-43.93 31.628H98.137c-12.928 0-25.101 6.303-32.56 16.861s-9.337 24.136-5.018 36.329l11.136 31.379H14.711C6.586 180.971 0 187.557 0 195.682v235.351c0 8.125 6.586 14.711 14.711 14.711h203.03c8.125 0 14.711-6.586 14.711-14.711s-6.586-14.711-14.711-14.711H29.421V210.39h62.994q.055.002.112.004c.471 0 .943-.029 1.417-.076.121-.012.237-.031.356-.046.322-.04.643-.085.965-.147q.288-.056.571-.124.354-.081.709-.182.333-.093.662-.203c.081-.026.162-.046.241-.075.104-.037.2-.087.305-.125a14 14 0 0 0 2.091-.989 16 16 0 0 0 1.165-.745 15 15 0 0 0 1.727-1.428 16 16 0 0 0 .956-1.015 17 17 0 0 0 .846-1.086q.209-.296.402-.603.174-.274.338-.558.2-.347.38-.708.133-.264.257-.534.171-.378.322-.768.108-.278.206-.56.127-.377.237-.761.093-.327.169-.658.08-.342.143-.69.072-.399.122-.802.038-.293.063-.59.038-.465.047-.934c.001-.106.016-.207.016-.315 0-.072-.01-.14-.01-.212a14 14 0 0 0-.047-.928 17 17 0 0 0-.053-.59 16 16 0 0 0-.118-.774 16 16 0 0 0-.141-.738q-.071-.3-.154-.6a14 14 0 0 0-.259-.865c-.024-.071-.038-.143-.063-.213l-18.1-51.002c-1.149-3.241-.669-6.71 1.315-9.518s5.094-4.419 8.534-4.419h94.583L212.8 180.96h-35.742c-8.125 0-14.711 6.586-14.711 14.711s6.586 14.711 14.711 14.711h140.713v38.245H203.026c-8.125 0-14.711 6.586-14.711 14.711v100.019c0 8.125 6.586 14.711 14.711 14.711h114.743v38.246h-30.864c-8.123 0-14.711 6.586-14.711 14.711s6.587 14.711 14.711 14.711h45.575c8.123 0 14.711-6.586 14.711-14.711V403.07h49.791l94.224 42.84a14.712 14.712 0 0 0 20.799-13.391V194.185a14.72 14.72 0 0 0-6.753-12.369M330.993 94.194h41.936c9.328 0 16.917 7.589 16.917 16.917s-7.589 16.917-16.917 16.917h-41.936c-9.328 0-16.917-7.589-16.917-16.917s7.591-16.917 16.917-16.917M217.732 348.653v-70.598h100.032v70.598zm129.453 14.711V253.055h38.267v120.599h-38.267zm135.394 46.312-67.706-30.783V247.815l67.706-30.783z" style="fill:#b3404a"/><circle cx="108.167" cy="295.701" r="31.628" style="fill:#f4b2b0"/><path d="M108.166 342.047c-25.551 0-46.338-20.788-46.338-46.338s20.788-46.338 46.338-46.338 46.338 20.788 46.338 46.338-20.787 46.338-46.338 46.338m0-63.256c-9.328 0-16.917 7.589-16.917 16.917s7.589 16.917 16.917 16.917 16.917-7.589 16.917-16.917-7.589-16.917-16.917-16.917" style="fill:#b3404a"/></svg>