<svg xmlns="http://www.w3.org/2000/svg" xml:space="preserve" width="800" height="800" viewBox="0 0 512 512"><path d="M292.513 440.119c-5.673 0-11.361-1.313-16.655-3.959l-140.767-70.389H41.063C18.42 365.771 0 347.351 0 324.708v-137.42c0-22.641 18.42-41.063 41.063-41.063h94.031L275.86 75.839c11.614-5.803 25.139-5.197 36.183 1.627 11.042 6.826 17.635 18.65 17.635 31.633v175.823c0 7.987-6.476 14.461-14.461 14.461s-14.461-6.474-14.461-14.461V109.1c0-4.159-2.742-6.301-3.919-7.029s-4.318-2.223-8.043-.362l-143.818 71.913a14.5 14.5 0 0 1-6.468 1.527H41.063c-6.694 0-12.141 5.446-12.141 12.141v137.419c0 6.694 5.447 12.141 12.141 12.141h97.444c2.246 0 4.46.522 6.468 1.527l143.82 71.914c3.718 1.861 6.863.367 8.04-.362 1.179-.729 3.92-2.872 3.92-7.029v-31.21c0-7.987 6.476-14.461 14.461-14.461s14.461 6.474 14.461 14.461v31.211c0 12.983-6.594 24.808-17.637 31.633-6.01 3.713-12.756 5.585-19.527 5.585" style="fill:#507c5c"/><path d="M134.763 160.686h-93.7c-14.692 0-26.602 11.91-26.602 26.602v137.42c0 14.692 11.91 26.602 26.602 26.602h93.7z" style="fill:#cff09e"/><path d="M134.762 365.771H41.063C18.42 365.771 0 347.351 0 324.708v-137.42c0-22.641 18.42-41.063 41.063-41.063h93.698c7.985 0 14.461 6.474 14.461 14.461V351.31c.001 7.987-6.474 14.461-14.46 14.461M41.063 175.147c-6.694 0-12.141 5.446-12.141 12.141v137.419c0 6.694 5.447 12.141 12.141 12.141H120.3V175.147Zm210.54 153.157c-7.985 0-14.461-6.474-14.461-14.461V104.137c0-7.987 6.476-14.461 14.461-14.461s14.461 6.474 14.461 14.461v209.707c0 7.986-6.474 14.46-14.461 14.46m245.936-57.843" style="fill:#507c5c"/><path d="M412.288 313.335c-3.83 0-7.655-1.46-10.576-4.381-5.841-5.841-5.841-15.311 0-21.152l84.754-84.755c5.842-5.841 15.31-5.842 21.153 0 5.84 5.84 5.84 15.31 0 21.152l-84.754 84.755a14.9 14.9 0 0 1-10.577 4.38" style="fill:#507c5c;stroke-width:.999998"/><path d="M497.042 313.335c-3.83 0-7.655-1.46-10.576-4.381l-84.754-84.755c-5.841-5.841-5.841-15.311 0-21.152 5.844-5.841 15.31-5.84 21.153 0l84.754 84.755c5.84 5.84 5.84 15.31 0 21.152a14.92 14.92 0 0 1-10.577 4.38" style="fill:#507c5c;stroke-width:.999998"/></svg>