<svg xmlns="http://www.w3.org/2000/svg" xml:space="preserve" width="800" height="800" viewBox="0 0 512.001 512.001"><path d="M302.542 446.433c-5.866 0-11.749-1.358-17.224-4.095l-145.592-72.802H42.471C19.052 369.536 0 350.484 0 327.065V184.934c0-23.419 19.052-42.471 42.471-42.471h97.255l145.592-72.799c12.01-6.007 25.999-5.375 37.42 1.683 11.422 7.06 18.241 19.29 18.241 32.718v181.851c0 8.261-6.698 14.957-14.957 14.957s-14.957-6.696-14.957-14.957V104.065c0-4.302-2.836-6.518-4.055-7.27-1.219-.754-4.474-2.297-8.314-.374l-148.752 74.378a14.96 14.96 0 0 1-6.689 1.579H42.471c-6.923 0-12.558 5.633-12.558 12.558v142.131c0 6.923 5.634 12.558 12.558 12.558h100.786c2.323 0 4.613.54 6.689 1.579l148.752 74.38c3.845 1.925 7.097.38 8.314-.374 1.219-.752 4.055-2.969 4.055-7.27v-32.283c0-8.261 6.698-14.957 14.957-14.957s14.957 6.696 14.957 14.957v32.283c0 13.428-6.82 25.658-18.241 32.718-6.218 3.838-13.196 5.775-20.198 5.775" style="fill:#507c5c"/><path d="M139.383 157.42H42.471c-15.196 0-27.514 12.318-27.514 27.514v142.131c0 15.196 12.318 27.514 27.514 27.514h96.912z" style="fill:#cff09e"/><path d="M139.383 369.536H42.471C19.052 369.536 0 350.484 0 327.065V184.934c0-23.419 19.052-42.471 42.471-42.471h96.912c8.261 0 14.957 6.696 14.957 14.957v197.16c0 8.26-6.696 14.956-14.957 14.956M42.471 172.377c-6.923 0-12.558 5.633-12.558 12.558v142.131c0 6.923 5.634 12.558 12.558 12.558h81.955V172.377zM260.23 330.785c-8.261 0-14.957-6.696-14.957-14.957V98.932c0-8.261 6.696-14.957 14.957-14.957 8.259 0 14.957 6.696 14.957 14.957v216.896c0 8.261-6.697 14.957-14.957 14.957m152.059-17.45c-3.829 0-7.655-1.46-10.576-4.381-5.841-5.841-5.841-15.311 0-21.152l84.754-84.755c5.842-5.841 15.31-5.842 21.153 0 5.841 5.841 5.841 15.311 0 21.152l-84.754 84.755a14.9 14.9 0 0 1-10.577 4.381" style="fill:#507c5c"/><path d="M497.043 313.335c-3.829 0-7.655-1.46-10.576-4.381l-84.754-84.755c-5.841-5.841-5.841-15.311 0-21.152 5.844-5.841 15.311-5.839 21.153 0l84.754 84.755c5.841 5.841 5.841 15.311 0 21.152a14.92 14.92 0 0 1-10.577 4.381" style="fill:#507c5c"/></svg>