<svg xmlns="http://www.w3.org/2000/svg" xml:space="preserve" viewBox="0 0 512 512"><path d="M294.765 385.869a14.54 14.54 0 0 1-10.314-4.272l-28.376-28.376-28.374 28.377c-5.698 5.695-14.931 5.695-20.63 0l-46.286-46.286c-5.696-5.696-5.696-14.933 0-20.63l28.374-28.374-28.374-28.374c-5.696-5.696-5.696-14.933 0-20.63l46.286-46.287a14.586 14.586 0 0 1 20.628 0l28.374 28.376 28.376-28.376a14.586 14.586 0 0 1 20.628 0l46.286 46.287c5.696 5.696 5.696 14.933 0 20.63l-28.374 28.374 28.374 28.374c5.696 5.696 5.696 14.933 0 20.63l-46.286 46.286a14.53 14.53 0 0 1-10.312 4.271m-38.69-67.863a14.54 14.54 0 0 1 10.314 4.273l28.376 28.376 25.657-25.658-28.374-28.374c-5.696-5.696-5.696-14.933 0-20.63l28.376-28.374-25.658-25.658-28.376 28.376a14.588 14.588 0 0 1-20.628 0l-28.374-28.376-25.658 25.658 28.376 28.374c5.696 5.696 5.696 14.933 0 20.63l-28.376 28.374 25.657 25.657 28.374-28.374a14.53 14.53 0 0 1 10.314-4.274" style="fill:#e67e80"/><path d="M405.133 148.865c8.055 0 14.587-6.532 14.587-14.587V75.2c0-8.055-6.532-14.587-14.587-14.587h-57.967V14.587C347.166 6.532 340.634 0 332.579 0H179.42c-8.055 0-14.587 6.532-14.587 14.587v46.026h-57.967c-8.055 0-14.587 6.532-14.587 14.587v422.213c0 8.055 6.532 14.587 14.587 14.587h298.268c8.055 0 14.587-6.532 14.587-14.587V210.295c0-8.055-6.532-14.587-14.587-14.587s-14.587 6.532-14.587 14.587v272.531H121.453V89.787h269.093v44.491c0 8.055 6.532 14.587 14.587 14.587M194.006 60.613V29.174h123.986v31.439z" style="fill:#e67e80"/></svg>