<svg xmlns="http://www.w3.org/2000/svg" xml:space="preserve" viewBox="0 0 512 512"><path d="M165.153 132.31H346.86v305.974H165.153z" style="fill:#b8bb26"/><path d="M346.85 452.88H165.149c-8.061 0-14.597-6.537-14.597-14.597V132.304c0-8.061 6.537-14.597 14.597-14.597h181.703c8.061 0 14.597 6.537 14.597 14.597v305.978c-.002 8.061-6.537 14.598-14.599 14.598m-167.104-29.195h152.508V146.901H179.746z" style="fill:#b8bb26"/><path d="M179.371 14.597h153.272v60.655H179.371z" style="fill:#b8bb26"/><path d="M405.239 148.606c8.061 0 14.597-6.537 14.597-14.597v-59.12c0-8.061-6.537-14.597-14.597-14.597h-58.008V14.597c0-8.06-6.537-14.597-14.597-14.597H179.365c-8.061 0-14.597 6.537-14.597 14.597v45.694H106.76c-8.061 0-14.597 6.537-14.597 14.597v422.514c0 8.061 6.537 14.597 14.597 14.597h298.481c8.061 0 14.597-6.537 14.597-14.597V210.08c0-8.061-6.537-14.597-14.597-14.597s-14.597 6.537-14.597 14.597v272.726H121.357V89.486h54.801c1.033.232 2.103.365 3.207.365h153.269c1.104 0 2.174-.133 3.207-.365h54.801v44.523c0 8.061 6.536 14.597 14.597 14.597M193.962 29.195h124.074v31.097H193.962z" style="fill:#b8bb26"/></svg>
