<svg xmlns="http://www.w3.org/2000/svg" xml:space="preserve" viewBox="0 0 512 512"><path d="M361.447 134.008c0-8.061-6.535-14.597-14.597-14.597H165.149c-8.062 0-14.597 6.537-14.597 14.597v75.662c0 .069.009.136.01.206-.001.069-.01.136-.01.206v75.662c0 .206.022.404.031.609-.009.203-.031.403-.031.609v151.324c0 8.061 6.535 14.597 14.597 14.597h181.703c8.062 0 14.597-6.537 14.597-14.597V286.962c0-.206-.022-.404-.031-.609.009-.203.031-.403.031-.609v-75.662c0-.069-.009-.136-.01-.206.001-.069.01-.136.01-.206v-75.662zM179.746 301.555h105.448c8.062 0 14.597-6.537 14.597-14.597 0-8.061-6.535-14.597-14.597-14.597H179.746v-47.684h152.508v61.065c0 .206.022.404.031.609-.009.203-.031.403-.031.609v61.065H179.746zm0-152.95h152.508v46.468H179.746zm152.507 275.08H179.746v-46.468h152.508v46.468z" style="fill:#ffffff"/><path d="M405.239 148.606c8.062 0 14.597-6.537 14.597-14.597v-59.12c0-8.061-6.535-14.597-14.597-14.597h-58.008V14.597c0-8.06-6.535-14.597-14.597-14.597H179.365c-8.062 0-14.597 6.537-14.597 14.597v45.694H106.76c-8.062 0-14.597 6.537-14.597 14.597v422.514c0 8.061 6.535 14.597 14.597 14.597h298.481c8.062 0 14.597-6.537 14.597-14.597V210.08c0-8.061-6.535-14.597-14.597-14.597s-14.597 6.537-14.597 14.597v272.726H121.357V89.486h54.801c1.033.232 2.103.365 3.207.365h153.269c1.104 0 2.175-.133 3.207-.365h54.801v44.523c0 8.061 6.535 14.597 14.597 14.597M193.962 29.195h124.074v31.097H193.962z" style="fill:#ffffff"/></svg>
