<svg xmlns="http://www.w3.org/2000/svg" width="800" height="800" viewBox="0 0 64 64"><g fill="none" fill-rule="evenodd"><path fill="#e7e7e7" d="M26.7 63c9.775 0 17.7-7.924 17.7-17.7S26.7 9 26.7 9 9 35.525 9 45.3C9 55.076 16.924 63 26.7 63"/><path fill="#717171" d="M41.11 41c7.242 0 13.112-5.87 13.112-13.11C54.222 20.647 41.11 1 41.11 1S28 20.648 28 27.89C28 35.13 33.87 41 41.11 41"/><path stroke="#e7e7e7" stroke-linecap="round" stroke-width="2" d="M32 28a9 9 0 0 0 9 9h0"/><path stroke="#FFF" stroke-linecap="round" stroke-width="2" d="M13 46c0 6.627 5.373 12 12 12h0"/></g></svg>
